<svg version="1.1" id="Layer_1" xmlns="http://www.w3.org/2000/svg" viewBox="0 0 40 35" xml:space="preserve"><title>Cart</title><rect x="8" y="10" width="22" height="22" rx="2" fill="transparent"></rect><path d="M30.4,9.6c-0.2-0.2-0.4-0.3-0.7-0.3h-4.6V8.1c0-2.2-1.1-4.3-3-5.4c-1.9-1-4.3-1-6.2,0S12.8,6,12.8,8.1v1.1H8.2 c-0.6,0-1,0.4-1,1v22.2c0,0.2,0.1,0.6,0.3,0.7c0.2,0.2,0.4,0.3,0.7,0.3h21.5c0.2,0,0.6-0.1,0.7-0.3c0.2-0.2,0.3-0.4,0.3-0.7V10.3 C30.6,10,30.6,9.8,30.4,9.6z M14.6,8.1c0-1.6,0.9-2.9,2.1-3.7c1.3-0.8,2.9-0.8,4.4,0c1.4,0.8,2.1,2.2,2.1,3.7v1.1h-8.7L14.6,8.1z M28.8,11.1v20.3H9.2V11.1H28.8z"></path></svg>