<svg xmlns="http://www.w3.org/2000/svg" viewBox="0 0 160.27891 59.00001"><title>Cathedral</title><path d="M80.289 59a29.5 29.5 0 1 1 29.4-29.6v.1a29.48 29.48 0 0 1-29.4 29.5zm0-58a28.5 28.5 0 1 0 28.4 28.6v-.1A28.49 28.49 0 0 0 80.289 1z"></path><path d="M101.139 50.25h-12.25v-.5h11.75V38h.5v12.25zm0-29.25h-.5V9.25h-11.75v-.5h12.25V21zm-40.9 0h-.5V8.75h12.25v.5h-11.75V21zm11.75 29.25h-12.25V38h.5v11.75h11.75v.5z"></path><path d="M101.069 38.18l-.36-.36 8.33-8.32-8.33-8.32.36-.36 8.67 8.68-8.67 8.68zm-20.68 20.67l-8.58-8.67.36-.36 8.22 8.33 8.32-8.33.36.36-8.68 8.67zm-20.58-20.67l-8.67-8.68 8.72-8.72 9.23-2.58 2.72-9.38 8.58-8.67 8.68 8.67-.36.36-8.32-8.33-8.18 8.28-2.72 9.47-9.37 2.62-8.28 8.28 8.33 8.32-.36.36z"></path><path d="M60.199 38.13l-.43-.26 4.93-8.37-4.93-8.37.43-.26 5.08 8.63-5.08 8.63zm28.56 12.08l-8.47-5.31-8.16 5.31-.28-.42 8.44-5.49 8.73 5.49-.26.42zm11.91-12.08l-5.17-8.63 5.17-8.63.44.26-5.03 8.37 5.03 8.37-.44.26z"></path><path d="M89.129 50.06l-.48-.12 2.33-9.85.15-.03 9.7-2.3.12.48-9.55 2.27-2.27 9.55zm-8.84-35.87l-8.43-4.98.26-.42 8.17 4.82 8.48-4.83.24.44-8.72 4.97z"></path><path d="M100.829 21.24l-9.64-2.54-2.54-9.64.48-.12 2.46 9.36 9.36 2.46-.12.48zm-29.08 28.82l-2.27-9.55-9.55-2.27.12-.48 9.85 2.33 2.33 9.85-.48.12z"></path><path d="M80.289 44.87h-.09l-10.7-4.34-4.78-11 4.38-11.3 11.19-4.6 11.29 4.68 4.48 11.19v.1l-4.68 10.89h-.1zm-10.4-4.76l10.4 4.22 10.71-4.22 4.52-10.61-4.32-10.81-10.91-4.52-10.81 4.42-4.22 10.9zm37.11.72l-6.2-2.5.18-.46 6.2 2.5-.18.46zM53.393 18.533l.191-.462 6.304 2.602-.191.462zM89.019 9.1l-.46-.2 2.7-6.3.46.2-2.7 6.3zm-19.6 47.29l-.46-.18 2.6-6.4.46.18-2.6 6.4zm31.474-35.72l6.099-2.496.189.463-6.099 2.496zM53.401 40.269l6.4-2.605.189.463-6.4 2.605zm15.66-37.577l.462-.191 2.602 6.304-.462.191z"></path><path d="M88.563 50.2l.461-.193 2.599 6.197-.461.193zM53.59 40.732a25.556 25.556 0 0 0-6.664-2.85 48.908 48.908 0 0 0-7.092-1.48 82.784 82.784 0 0 0-14.467-1.026H2.085a1.587 1.587 0 0 1-.661-.086 1.478 1.478 0 0 1-.342-.254l-.189-.263a3.147 3.147 0 0 1-.23-.497 6.502 6.502 0 0 1-.266-.949 23.307 23.307 0 0 1-.182-7.455 7.447 7.447 0 0 1 .217-.957 2.271 2.271 0 0 1 .56-1.023 1.111 1.111 0 0 1 .382-.218 1.731 1.731 0 0 1 .242-.046 1.097 1.097 0 0 1 .134-.004h23.28a78.568 78.568 0 0 0 14.461-1.055 44.649 44.649 0 0 0 13.901-4.035 32.346 32.346 0 0 1-6.638 3.081 54.48 54.48 0 0 1-7.091 1.939 79.573 79.573 0 0 1-14.634 1.07H1.749a.465.465 0 0 0-.094.003.012.012 0 0 0 .019.001c.009-.019.001.016-.01.004a1.498 1.498 0 0 0-.276.578 6.46 6.46 0 0 0-.185.822 22.333 22.333 0 0 0 .173 7.084 5.562 5.562 0 0 0 .225.807 1.303 1.303 0 0 0 .245.459c-.139-.03.101.007.241-.006h23.282a84.333 84.333 0 0 1 14.637 1.036 47.619 47.619 0 0 1 7.089 1.964 23.888 23.888 0 0 1 6.497 3.356zm53.099 0a23.886 23.886 0 0 1 6.497-3.356 47.623 47.623 0 0 1 7.089-1.964 84.333 84.333 0 0 1 14.637-1.037h23.282c.14.013.38-.023.241.006a1.301 1.301 0 0 0 .245-.459 5.562 5.562 0 0 0 .225-.807 22.333 22.333 0 0 0 .172-7.084 6.463 6.463 0 0 0-.185-.822 1.497 1.497 0 0 0-.276-.578c-.011.012-.019-.023-.011-.004a.012.012 0 0 0 .019-.001.464.464 0 0 0-.094-.003h-23.282a79.573 79.573 0 0 1-14.634-1.07 54.479 54.479 0 0 1-7.091-1.939 32.346 32.346 0 0 1-6.638-3.081 44.649 44.649 0 0 0 13.901 4.035 78.568 78.568 0 0 0 14.461 1.055h23.282a1.095 1.095 0 0 1 .133.004 1.737 1.737 0 0 1 .242.046 1.112 1.112 0 0 1 .382.218 2.271 2.271 0 0 1 .56 1.023 7.426 7.426 0 0 1 .217.957 23.307 23.307 0 0 1-.182 7.455 6.499 6.499 0 0 1-.266.949 3.146 3.146 0 0 1-.23.497l-.189.263a1.478 1.478 0 0 1-.342.254 1.587 1.587 0 0 1-.661.086h-23.282a82.784 82.784 0 0 0-14.467 1.026 48.908 48.908 0 0 0-7.092 1.481 25.555 25.555 0 0 0-6.664 2.85z"></path></svg>