<svg xmlns="http://www.w3.org/2000/svg" viewBox="0 0 154.87207 59.00001"><title>Solitaire</title><path d="M48.927 35.376H1.688C.122 35.376 0 30.575 0 29.103c0-5.479 1.134-5.479 1.561-5.479h47.383v1H1.561C1.382 24.779 1 26.15 1 29.103c0 2.363.388 4.987.783 5.299l47.144-.026zm104.258 0h-47.224v-1h47.224c.299-.284.687-2.909.687-5.272 0-2.953-.382-4.324-.623-4.495l-47.305.016v-1h47.367c.427 0 1.561 0 1.561 5.479 0 1.472-.122 6.272-1.687 6.272z"></path><path d="M77.544 59a29.5 29.5 0 1 1 29.4-29.6v.1a29.48 29.48 0 0 1-29.4 29.5zm0-58a28.5 28.5 0 1 0 28.4 28.6v-.1A28.49 28.49 0 0 0 77.544 1z"></path><path d="M98.394 50.25h-12.25v-.5h11.75V38h.5v12.25zm0-29.25h-.5V9.25h-11.75v-.5h12.25V21zm-40.9 0h-.5V8.75h12.25v.5h-11.75V21zm11.75 29.25h-12.25V38h.5v11.75h11.75v.5z"></path><path d="M98.324 38.18l-.36-.36 8.33-8.32-8.33-8.32.36-.36 8.67 8.68-8.67 8.68zm-20.68 20.67l-8.58-8.67.36-.36 8.22 8.33 8.32-8.33.36.36-8.68 8.67zm-20.58-20.67l-8.67-8.68 8.72-8.72 9.23-2.58 2.72-9.38 8.58-8.67 8.68 8.67-.36.36-8.32-8.33-8.18 8.28-2.72 9.47-9.37 2.62-8.28 8.28 8.33 8.32-.36.36z"></path><path d="M57.454 38.13l-.43-.26 4.93-8.37-4.93-8.37.43-.26 5.08 8.63-5.08 8.63zm28.56 12.08l-8.47-5.31-8.16 5.31-.28-.42 8.44-5.49 8.73 5.49-.26.42zm11.91-12.08l-5.17-8.63 5.17-8.63.44.26-5.03 8.37 5.03 8.37-.44.26z"></path><path d="M86.384 50.06l-.48-.12 2.33-9.85.15-.03 9.7-2.3.12.48-9.55 2.27-2.27 9.55zm-8.84-35.87l-8.43-4.98.26-.42 8.17 4.82 8.48-4.83.24.44-8.72 4.97z"></path><path d="M98.084 21.24l-9.64-2.54-2.54-9.64.48-.12 2.46 9.36 9.36 2.46-.12.48zm-29.08 28.82l-2.27-9.55-9.55-2.27.12-.48 9.85 2.33 2.33 9.85-.48.12z"></path><path d="M77.544 44.87h-.09l-10.7-4.34-4.78-11 4.38-11.3 11.19-4.6 11.29 4.68 4.48 11.19v.1l-4.68 10.89h-.1zm-10.4-4.76l10.4 4.22 10.71-4.22 4.52-10.61-4.32-10.81-10.91-4.52-10.81 4.42-4.22 10.9zm37.11.72l-6.2-2.5.18-.46 6.2 2.5-.18.46zM50.648 18.533l.191-.462 6.304 2.602-.191.462zM86.274 9.1l-.46-.2 2.7-6.3.46.2-2.7 6.3zm-19.6 47.29l-.46-.18 2.6-6.4.46.18-2.6 6.4zm31.474-35.72l6.099-2.496.189.463-6.099 2.496zM50.656 40.269l6.4-2.605.189.463-6.4 2.605zm15.66-37.577l.462-.191 2.602 6.304-.462.191zM85.818 50.2l.461-.193 2.599 6.197-.461.193z"></path></svg>