<svg xmlns="http://www.w3.org/2000/svg" width="19px" height="19px" viewBox="0 0 579.1 579.1" role="img"><title>Pinterest</title><path d="M434.9 38.8C390.6 13 342.1 0 289.6 0c-52.6 0-101 13-145.4 38.8-44.4 25.9-79.5 61-105.4 105.4C12.9 188.6 0 237 0 289.6c0 58.6 16 111.7 47.9 159.5s73.8 83.1 125.6 105.9c-1-26.9.6-49.1 4.9-66.7l37.3-157.6c-6.3-12.3-9.4-27.6-9.4-46 0-21.4 5.4-39.2 16.2-53.5 10.8-14.3 24-21.5 39.6-21.5 12.6 0 22.2 4.1 29 12.4 6.8 8.3 10.2 18.7 10.2 31.3 0 7.8-1.5 17.3-4.3 28.5-2.9 11.2-6.7 24.1-11.3 38.8-4.7 14.7-8 26.5-10 35.3-3.5 15.3-.6 28.5 8.7 39.4 9.3 10.9 21.6 16.4 37 16.4 26.9 0 49-15 66.2-44.9 17.2-29.9 25.8-66.2 25.8-109 0-32.9-10.6-59.7-31.9-80.3-21.2-20.6-50.8-30.9-88.8-30.9-42.5 0-76.9 13.6-103.1 40.9-26.3 27.3-39.4 59.9-39.4 97.8 0 22.6 6.4 41.6 19.2 56.9 4.3 5 5.7 10.4 4.1 16.2-.5 1.5-1.5 5.3-3 11.3-1.5 6-2.5 9.9-3 11.7-2 8-6.8 10.6-14.3 7.5-19.4-8-34.1-22-44.1-41.9C99 327.2 94 304.2 94 278.1c0-16.8 2.7-33.7 8.1-50.5s13.8-33.1 25.3-48.8c11.4-15.7 25.1-29.6 41.1-41.7 16-12.1 35.4-21.7 58.3-29 22.9-7.3 47.5-10.9 73.9-10.9 35.7 0 67.7 7.9 96.1 23.8 28.4 15.8 50.1 36.3 65 61.5 15 25.1 22.4 52 22.4 80.7 0 37.7-6.5 71.6-19.6 101.8-13.1 30.2-31.5 53.9-55.4 71.1-23.9 17.2-51 25.8-81.4 25.8-15.3 0-29.7-3.6-43-10.7-13.3-7.2-22.5-15.6-27.5-25.5-11.3 44.5-18.1 71-20.4 79.6-4.8 17.9-14.6 38.5-29.4 61.8 26.9 8 54.3 12.1 82.2 12.1 52.5 0 101-12.9 145.4-38.8 44.4-25.9 79.5-61 105.4-105.4 25.9-44.4 38.8-92.8 38.8-145.4 0-52.5-13-101-38.8-145.4-26.1-44.3-61.2-79.5-105.6-105.4z"></path></svg>