<svg version="1.1" xmlns="http://www.w3.org/2000/svg" viewBox="0 0 40 30" xml:space="preserve"><title>Calendar</title><path d="M29.1,4.7h-1.6V4.6c0-1-0.8-1.8-1.8-1.8s-1.8,0.8-1.8,1.8v0.1h-8V4.6c0-1-0.8-1.8-1.8-1.8s-1.8,0.8-1.8,1.8v0.1h-1.6 c-1.3,0-2.3,1-2.3,2.3v16.5c0,1.8,1.5,3.3,3.3,3.3h16.5c1.8,0,3.3-1.5,3.3-3.3V7C31.4,5.8,30.3,4.7,29.1,4.7z M29.7,10.8v12.7 c0,0.9-0.7,1.6-1.6,1.6H11.6c-0.9,0-1.6-0.7-1.6-1.6V10.8H29.7z M14,8.4c1,0,1.8-0.8,1.8-1.8V6.4h8v0.1c0,1,0.8,1.8,1.8,1.8 s1.8-0.8,1.8-1.8V6.4h1.6c0.3,0,0.6,0.3,0.6,0.6v2.1H10V7c0-0.3,0.3-0.6,0.6-0.6h1.6v0.1C12.2,7.6,13,8.4,14,8.4z"></path></svg>