<svg xmlns="http://www.w3.org/2000/svg" viewBox="0 0 45.4 59" role="img"><title>Emerald</title><path d="M38.31,59H7.09L0,51.91V7.09L7.09,0H38.31L45.4,7.09V51.91ZM7.51,58H37.89l6.51-6.51v-44L37.89,1H7.51L1,7.51v44Z"></path><rect x="32" y="6.25" width="3" height="0.5" transform="translate(8.22 29.42) rotate(-53.17)"></rect><rect x="9.8" y="2.48" width="0.5" height="3.14" transform="translate(-0.4 6.91) rotate(-37.23)"></rect><rect x="7.95" y="0.19" width="0.5" height="2.92" transform="translate(0.73 5.41) rotate(-38.05)"></rect><rect x="35.74" y="1.4" width="2.92" height="0.5" transform="translate(12.98 29.93) rotate(-51.97)"></rect><rect x="33.78" y="3.8" width="3.14" height="0.5" transform="translate(10.74 29.75) rotate(-52.77)"></rect><rect x="11.65" y="4.99" width="0.5" height="2.92" transform="translate(-1.45 8.7) rotate(-38.03)"></rect><rect x="33.25" y="51.09" width="0.5" height="2.92" transform="translate(-25.27 31.83) rotate(-38.06)"></rect><rect x="10.44" y="52.3" width="2.92" height="0.5" transform="translate(-36.8 29.49) rotate(-51.9)"></rect><polygon points="38.62 58.75 6.78 58.75 9 55.94 9.4 56.26 7.82 58.25 37.58 58.25 36 56.26 36.4 55.94 38.62 58.75"></polygon><rect x="35.05" y="53.4" width="0.5" height="3" transform="translate(-25.88 32.16) rotate(-36.87)"></rect><rect x="8.6" y="54.65" width="3" height="0.5" transform="translate(-39.86 30) rotate(-53.09)"></rect><polygon points="37.03 12.21 36.77 11.79 39.47 10.19 39.73 10.62 37.03 12.21"></polygon><rect x="43.35" y="49.45" width="0.5" height="3" transform="translate(-22.32 63.26) rotate(-60.02)"></rect><polygon points="39.47 48.81 36.77 47.22 37.03 46.78 39.73 48.38 39.47 48.81"></polygon><rect x="42.1" y="7.8" width="3" height="0.5" transform="translate(1.81 22.85) rotate(-29.97)"></rect><polygon points="39.73 10.62 39.47 10.19 42.17 8.59 42.43 9.02 39.73 10.62"></polygon><polygon points="42.17 50.41 39.47 48.81 39.73 48.38 42.43 49.98 42.17 50.41"></polygon><rect x="0.28" y="50.65" width="3.14" height="0.5" transform="translate(-25.71 8.07) rotate(-30.68)"></rect><rect x="6.85" y="9.75" width="0.5" height="3" transform="translate(-6.19 11.78) rotate(-60.02)"></rect><rect x="3" y="49.1" width="3" height="0.5" transform="translate(-24.05 8.85) rotate(-29.97)"></rect><rect x="5.6" y="47.6" width="3" height="0.5" transform="translate(-22.95 9.94) rotate(-29.97)"></rect><rect x="4.25" y="8.17" width="0.5" height="3.05" transform="translate(-6.12 8.45) rotate(-58.39)"></rect><rect x="1.6" y="6.53" width="0.5" height="3.14" transform="matrix(0.51, -0.86, 0.86, 0.51, -6.06, 5.56)"></rect><polygon points="3.45 8.9 2.95 8.9 2.95 8.6 8.92 2.62 9.28 2.98 3.45 8.8 3.45 8.9"></polygon><rect x="2.95" y="8.9" width="0.5" height="41.2"></rect><polygon points="9.2 56.35 9 56.35 2.95 50.3 2.95 50.1 3.3 50.1 3.38 50.02 9.28 55.92 9.2 56 9.2 56.35"></polygon><rect x="9.2" y="55.85" width="27" height="0.5"></rect><rect x="39.05" y="1.56" width="0.5" height="8.49" transform="translate(7.41 29.49) rotate(-45)"></rect><rect x="9.1" y="2.55" width="27.2" height="0.5"></rect><rect x="35.01" y="52.9" width="8.49" height="0.5" transform="translate(-25.91 42.24) rotate(-44.05)"></rect><rect x="42.05" y="8.8" width="0.5" height="41.4"></rect><rect x="39.35" y="10.4" width="0.5" height="38.2"></rect><polygon points="39.42 10.58 34.32 5.48 34.4 5.4 34.4 5.05 34.6 5.05 39.78 10.22 39.42 10.58"></polygon><polygon points="5.97 10.58 5.9 10.5 5.55 10.5 5.55 10.29 10.82 5.12 11.18 5.48 5.97 10.58"></polygon><rect x="11" y="5.05" width="23.4" height="0.5"></rect><rect x="11" y="53.45" width="23.4" height="0.5"></rect><rect x="5.55" y="10.5" width="0.5" height="38.1"></rect><polygon points="34.58 53.88 34.23 53.52 39.42 48.42 39.77 48.78 34.58 53.88"></polygon><polygon points="11 53.95 10.8 53.95 5.62 48.78 5.98 48.42 11.08 53.52 11 53.6 11 53.95"></polygon><polygon points="8.22 47.28 8.05 47.1 8.05 12 8.22 11.82 8.5 12.1 8.55 12.1 8.55 47 8.5 47 8.22 47.28"></polygon><polygon points="12.8 51.65 12.6 51.65 8.22 47.28 8.58 46.92 12.88 51.22 12.8 51.3 12.8 51.65"></polygon><polygon points="32.42 7.88 32.4 7.85 12.8 7.85 12.8 7.35 32.6 7.35 32.78 7.52 32.5 7.8 32.5 7.85 32.42 7.88"></polygon><rect x="7.49" y="9.55" width="6.22" height="0.5" transform="translate(-3.83 10.37) rotate(-45)"></rect><rect x="31.67" y="48.95" width="6.15" height="0.5" transform="translate(-24.72 39.64) rotate(-45.63)"></rect><rect x="12.8" y="51.15" width="19.8" height="0.5"></rect><rect x="34.5" y="6.81" width="0.5" height="6.08" transform="translate(3.21 27.46) rotate(-45.01)"></rect><rect x="36.65" y="12" width="0.5" height="35"></rect></svg>