<svg xmlns="http://www.w3.org/2000/svg" viewBox="0 0 37.6 59.17" role="img"><title>Pear</title><path d="M18.8,59.17C8.26,59.17,0,50.6,0,39.67,0,31.17,2.4,14.76,18.47.3L18.8,0l.34.3C35.2,14.87,37.6,31.22,37.6,39.67,37.6,50.6,29.34,59.17,18.8,59.17Zm0-57.82C3.32,15.47,1,31.4,1,39.67,1,50,8.82,58.17,18.8,58.17S36.6,50,36.6,39.67C36.6,31.45,34.28,15.58,18.8,1.35Z" transform="translate(0 0)"></path><path d="M33.73,51.52H3.87L18.8,0ZM4.53,51H33.07L18.8,1.81Z" transform="translate(0 0)"></path><path d="M18.8,47.64,6.71,42.8.14,38l.17-.21L18.48,15.46,12.11,7.63l.38-.32,6.31,7.76,6.31-7.76.38.32-6.37,7.83L37.46,38,31,42.8ZM.86,37.92,7,42.37,18.8,47.1l12-4.75,6-4.43L18.8,15.86Z" transform="translate(0 0)"></path><polygon points="10.6 56.73 10.2 56.42 14.2 51.12 18.79 47.05 23.7 51.13 27.41 56.43 27 56.72 23.31 51.44 18.8 47.7 14.57 51.46 10.6 56.73"></polygon><polygon points="18.79 59.15 14.19 51.4 8.66 35.15 7.06 29.75 5.94 16.63 15.48 11.36 15.72 11.79 6.46 16.91 7.55 29.65 9.14 35 14.64 51.19 18.81 58.2 23.27 51.17 25.36 44.6 28.77 36.18 30.05 29.63 31.14 16.72 21.78 11.79 22.02 11.35 31.66 16.43 30.55 29.7 29.25 36.32 25.83 44.77 23.71 51.41 18.79 59.15"></polygon></svg>